<?xml version="1.0" encoding="UTF-8" standalone="no"?>
<!-- Created with Inkscape (http://www.inkscape.org/) -->

<svg
   id="svg2"
   viewBox="0 0 288 288"
   version="1.1"
   sodipodi:docname="logo.svg"
   inkscape:version="1.2.2 (b0a8486541, 2022-12-01)"
   inkscape:export-filename="logo.pdf"
   inkscape:export-xdpi="96"
   inkscape:export-ydpi="96"
   width="3in"
   height="3in"
   xmlns:inkscape="http://www.inkscape.org/namespaces/inkscape"
   xmlns:sodipodi="http://sodipodi.sourceforge.net/DTD/sodipodi-0.dtd"
   xmlns="http://www.w3.org/2000/svg"
   xmlns:svg="http://www.w3.org/2000/svg"
   xmlns:rdf="http://www.w3.org/1999/02/22-rdf-syntax-ns#"
   xmlns:cc="http://creativecommons.org/ns#"
   xmlns:dc="http://purl.org/dc/elements/1.1/">
  <defs
     id="defs22" />
  <sodipodi:namedview
     id="namedview20"
     pagecolor="#ffffff"
     bordercolor="#000000"
     borderopacity="0.25"
     inkscape:showpageshadow="2"
     inkscape:pageopacity="0.0"
     inkscape:pagecheckerboard="0"
     inkscape:deskcolor="#d1d1d1"
     showgrid="false"
     inkscape:zoom="1.0861111"
     inkscape:cx="204.85934"
     inkscape:cy="223.73402"
     inkscape:window-width="1920"
     inkscape:window-height="1011"
     inkscape:window-x="0"
     inkscape:window-y="0"
     inkscape:window-maximized="1"
     inkscape:current-layer="svg2"
     inkscape:document-units="in" />
  <g
     id="g3060"
     style="stroke:#000000;stroke-width:3.79435;stroke-dasharray:none"
     transform="matrix(0.79585369,0,0,0.79713048,-126.09523,-117.14147)">
    <path
       id="path3048"
       style="fill:none;stroke:#000000;stroke-width:5.1602;stroke-dasharray:none"
       d="m 436.64,322.65 a 121.72,121.72 0 1 1 -243.43,0 121.72,121.72 0 1 1 243.43,0 z"
       transform="matrix(0.73531,0,0,0.73531,197.31,90.571)" />
    <path
       id="path3050"
       style="fill:none;stroke:#000000;stroke-width:5.1602;stroke-dasharray:none"
       d="m 436.64,322.65 a 121.72,121.72 0 1 1 -243.43,0 121.72,121.72 0 1 1 243.43,0 z"
       transform="matrix(0.73531,0,0,0.73531,152.56,13.044)" />
    <path
       id="path3052"
       style="fill:none;stroke:#000000;stroke-width:5.1602;stroke-dasharray:none"
       d="m 436.64,322.65 a 121.72,121.72 0 1 1 -243.43,0 121.72,121.72 0 1 1 243.43,0 z"
       transform="matrix(0.73531,0,0,0.73531,63.061,13.044)" />
    <path
       id="path3054"
       style="fill:none;stroke:#000000;stroke-width:5.1602;stroke-dasharray:none"
       d="m 436.64,322.65 a 121.72,121.72 0 1 1 -243.43,0 121.72,121.72 0 1 1 243.43,0 z"
       transform="matrix(0.73531,0,0,0.73531,18.311,90.571)" />
    <path
       id="path3056"
       style="fill:none;stroke:#000000;stroke-width:5.1602;stroke-dasharray:none"
       d="m 436.64,322.65 a 121.72,121.72 0 1 1 -243.43,0 121.72,121.72 0 1 1 243.43,0 z"
       transform="matrix(0.73531,0,0,0.73531,63.061,168.1)" />
    <path
       id="path3058"
       style="fill:none;stroke:#000000;stroke-width:5.1602;stroke-dasharray:none"
       d="m 436.64,322.65 a 121.72,121.72 0 1 1 -243.43,0 121.72,121.72 0 1 1 243.43,0 z"
       transform="matrix(0.73531,0,0,0.73531,152.56,168.1)" />
  </g>
  <g
     id="g3069"
     style="stroke:#000000;stroke-width:3.79435;stroke-dasharray:none"
     transform="matrix(0,0.79713048,-0.79585369,0,404.88911,-126.35588)">
    <path
       id="path3073"
       style="fill:none;stroke:#000000;stroke-width:5.1602;stroke-dasharray:none"
       d="m 436.64,322.65 a 121.72,121.72 0 1 1 -243.43,0 121.72,121.72 0 1 1 243.43,0 z"
       transform="matrix(0.73531,0,0,0.73531,197.31,90.571)" />
    <path
       id="path3075"
       style="fill:none;stroke:#000000;stroke-width:5.1602;stroke-dasharray:none"
       d="m 436.64,322.65 a 121.72,121.72 0 1 1 -243.43,0 121.72,121.72 0 1 1 243.43,0 z"
       transform="matrix(0.73531,0,0,0.73531,152.56,13.044)" />
    <path
       id="path3077"
       style="fill:none;stroke:#000000;stroke-width:5.1602;stroke-dasharray:none"
       d="m 436.64,322.65 a 121.72,121.72 0 1 1 -243.43,0 121.72,121.72 0 1 1 243.43,0 z"
       transform="matrix(0.73531,0,0,0.73531,63.061,13.044)" />
    <path
       id="path3079"
       style="fill:none;stroke:#000000;stroke-width:5.1602;stroke-dasharray:none"
       d="m 436.64,322.65 a 121.72,121.72 0 1 1 -243.43,0 121.72,121.72 0 1 1 243.43,0 z"
       transform="matrix(0.73531,0,0,0.73531,18.311,90.571)" />
    <path
       id="path3081"
       style="fill:none;stroke:#000000;stroke-width:5.1602;stroke-dasharray:none"
       d="m 436.64,322.65 a 121.72,121.72 0 1 1 -243.43,0 121.72,121.72 0 1 1 243.43,0 z"
       transform="matrix(0.73531,0,0,0.73531,63.061,168.1)" />
    <path
       id="path3083"
       style="fill:none;stroke:#000000;stroke-width:5.1602;stroke-dasharray:none"
       d="m 436.64,322.65 a 121.72,121.72 0 1 1 -243.43,0 121.72,121.72 0 1 1 243.43,0 z"
       transform="matrix(0.73531,0,0,0.73531,152.56,168.1)" />
  </g>
  <path
     id="path3028"
     style="fill:none;stroke:#000000;stroke-width:3.02216;stroke-dasharray:none"
     d="m 215.22146,144.16695 a 71.228257,71.342529 0 1 1 -142.450659,0 71.228257,71.342529 0 1 1 142.450659,0 z" />
  <metadata
     id="metadata17">
    <rdf:RDF>
      <cc:Work>
        <dc:format>image/svg+xml</dc:format>
        <dc:type
           rdf:resource="http://purl.org/dc/dcmitype/StillImage" />
        <cc:license
           rdf:resource="http://creativecommons.org/publicdomain/zero/1.0/" />
        <dc:publisher>
          <cc:Agent
             rdf:about="http://openclipart.org/">
            <dc:title>Openclipart</dc:title>
          </cc:Agent>
        </dc:publisher>
        <dc:title>blossoming circles</dc:title>
        <dc:date>2011-07-18T21:14:26</dc:date>
        <dc:description>blossoming circles</dc:description>
        <dc:source>https://openclipart.org/detail/150331/blossoming-circles-by-10binary</dc:source>
        <dc:creator>
          <cc:Agent>
            <dc:title>10binary</dc:title>
          </cc:Agent>
        </dc:creator>
        <dc:subject>
          <rdf:Bag>
            <rdf:li>blossoming</rdf:li>
            <rdf:li>circles</rdf:li>
          </rdf:Bag>
        </dc:subject>
      </cc:Work>
      <cc:License
         rdf:about="http://creativecommons.org/publicdomain/zero/1.0/">
        <cc:permits
           rdf:resource="http://creativecommons.org/ns#Reproduction" />
        <cc:permits
           rdf:resource="http://creativecommons.org/ns#Distribution" />
        <cc:permits
           rdf:resource="http://creativecommons.org/ns#DerivativeWorks" />
      </cc:License>
    </rdf:RDF>
  </metadata>
</svg>
